<svg width="140" height="38" viewBox="0 0 140 38" fill="none" xmlns="http://www.w3.org/2000/svg">
<path d="M118.311 16.3156C118.311 6.71445 111.676 0.00946133 102.181 0.00946133C99.9959 -0.0658417 97.819 0.309013 95.7853 1.11064C93.7516 1.91227 91.9045 3.12352 90.3588 4.66925C88.8131 6.21499 87.6017 8.06216 86.8001 10.0959C85.9985 12.1296 85.6236 14.3064 85.6989 16.4911C85.6989 24.159 89.819 29.9925 96.1952 32.1218L96.0595 32.0939L96.5019 32.2207C96.7968 32.3136 97.0918 32.4021 97.397 32.4773L115.62 37.7077L115.831 31.1147L111.748 29.9454C113.828 28.3416 115.504 26.2742 116.644 23.9078C117.783 21.5415 118.354 18.9417 118.311 16.3156V16.3156ZM92.519 16.4925C92.519 10.4629 96.2586 6.56705 102.048 6.56705C107.758 6.56705 111.446 10.4629 111.446 16.4925C111.446 22.4573 107.651 26.4638 102.008 26.4638C96.3352 26.4638 92.5234 22.4573 92.5234 16.4925H92.519Z" fill="white" fill-opacity="0.5"/>
<path d="M16.2368 13.7586L5.92496 0.618408H0L0 32.6247H6.69912V12.8414L15.0896 23.174H17.3015L25.602 12.9137V32.6247H32.3454V0.625788H26.4617L16.2368 13.7586Z" fill="white" fill-opacity="0.5"/>
<path d="M47.3798 7.68461C45.7548 7.67188 44.1449 7.99562 42.6511 8.6354C41.1574 9.27517 39.8122 10.2171 38.7003 11.4021C37.5467 12.5855 36.6392 13.9859 36.0302 15.5223C35.4212 17.0587 35.1229 18.7005 35.1524 20.3529C35.1053 23.7061 36.3834 26.9423 38.7091 29.3583C39.8207 30.5408 41.1647 31.4806 42.6568 32.1189C44.149 32.7571 45.7569 33.0799 47.3798 33.0669C49.6358 33.0946 51.8501 32.4583 53.7471 31.237V32.2279H60.4035V8.21994L53.8975 9.57799C51.9629 8.30997 49.6927 7.65051 47.3798 7.68461ZM51.8036 25.0215C51.3043 25.5681 50.7022 26.0109 50.0317 26.3246C49.3611 26.6383 48.6353 26.8167 47.8958 26.8497C47.1563 26.8827 46.4175 26.7696 45.7217 26.5169C45.0259 26.2642 44.3867 25.8769 43.8407 25.3769C43.7198 25.2659 43.6038 25.1498 43.4927 25.0289C42.3496 23.7486 41.7178 22.0922 41.7178 20.3758C41.7178 18.6594 42.3496 17.003 43.4927 15.7226C44.0131 15.1353 44.6522 14.6652 45.3677 14.3432C46.0833 14.0212 46.859 13.8546 47.6437 13.8546C48.4284 13.8546 49.2042 14.0212 49.9197 14.3432C50.6353 14.6652 51.2743 15.1353 51.7947 15.7226C52.9363 17.0029 53.5672 18.6583 53.5672 20.3736C53.5672 22.0889 52.9363 23.7443 51.7947 25.0245L51.8036 25.0215Z" fill="white" fill-opacity="0.5"/>
<path d="M78.1665 8.56476C76.0859 8.55272 74.0671 9.2719 72.4628 10.5967L70.705 8.03833H65.9863V32.6259H72.5542V22.342C72.5266 21.1138 72.6354 19.8863 72.8786 18.682C73.1588 17.3711 74.9076 14.8215 77.1107 14.8215C78.1432 14.8127 79.1488 15.1502 79.967 15.78L81.1747 16.7193L84.4926 10.8209L83.5297 10.1322C81.9568 9.04713 80.0762 8.49751 78.1665 8.56476Z" fill="white" fill-opacity="0.5"/>
<path d="M129.256 13.8616H131.22V23.5645H129.256V19.6834H125.329V23.5645H123.365V13.8616H125.329V17.7428H129.256V13.8616Z" fill="white" fill-opacity="0.5"/>
<path d="M140.001 17.7428C140.001 18.3989 139.842 19.0134 139.524 19.5863C139.216 20.1593 138.786 20.6259 138.234 20.9863L140.001 23.5645H137.841L136.495 21.5962L136.074 21.6239H134.11V23.5645H132.146V13.8616H136.074C136.616 13.8616 137.126 13.9632 137.603 14.1665C138.08 14.3698 138.496 14.6471 138.851 14.9982C139.206 15.3494 139.487 15.7606 139.693 16.2319C139.898 16.7032 140.001 17.2068 140.001 17.7428ZM134.11 15.8022V19.6834H136.074C136.345 19.6834 136.598 19.6325 136.831 19.5309C137.074 19.4292 137.285 19.2906 137.462 19.115C137.64 18.9395 137.78 18.7362 137.883 18.5051C137.986 18.2649 138.038 18.0107 138.038 17.7428C138.038 17.4748 137.986 17.2253 137.883 16.9942C137.78 16.754 137.64 16.5461 137.462 16.3705C137.285 16.1949 137.074 16.0563 136.831 15.9546C136.598 15.853 136.345 15.8022 136.074 15.8022H134.11Z" fill="white" fill-opacity="0.5"/>
</svg>
