<svg width="218" height="59" viewBox="0 0 218 59" fill="none" xmlns="http://www.w3.org/2000/svg">
<path d="M184.226 25.4057C184.226 10.4554 173.893 0.0147326 159.108 0.0147326C155.706 -0.102525 152.317 0.481177 149.15 1.72943C145.983 2.97768 143.107 4.86377 140.7 7.2707C138.293 9.67762 136.407 12.5539 135.159 15.7207C133.91 18.8875 133.327 22.2771 133.444 25.679C133.444 37.6191 139.86 46.7026 149.788 50.0183L149.577 49.9747L150.266 50.1722C150.725 50.3168 151.184 50.4546 151.66 50.5717L180.035 58.7162L180.364 48.4501L174.006 46.6293C177.245 44.132 179.855 40.9127 181.63 37.2279C183.404 33.5432 184.293 29.4949 184.226 25.4057V25.4057ZM144.064 25.6812C144.064 16.2922 149.887 10.2258 158.902 10.2258C167.792 10.2258 173.535 16.2922 173.535 25.6812C173.535 34.9692 167.627 41.208 158.84 41.208C150.006 41.208 144.071 34.9692 144.071 25.6812H144.064Z" fill="white"/>
<path d="M25.2831 21.4241L9.22601 0.962891H0L0 50.8012H10.4315V19.9958L23.4967 36.0851H26.9409L39.866 20.1084V50.8012H50.3664V0.974383H41.2047L25.2831 21.4241Z" fill="white"/>
<path d="M73.7785 11.9658C71.2482 11.946 68.7413 12.4501 66.4153 13.4463C64.0894 14.4426 61.9948 15.9093 60.2633 17.7545C58.467 19.5972 57.0538 21.7779 56.1056 24.1702C55.1573 26.5626 54.6927 29.1192 54.7387 31.6922C54.6653 36.9135 56.6556 41.9528 60.277 45.7149C62.0079 47.5561 64.1008 49.0197 66.4242 50.0135C68.7477 51.0072 71.2515 51.5098 73.7785 51.4898C77.2914 51.5329 80.7394 50.542 83.6933 48.6403V50.1833H94.0582V12.7994L83.9276 14.9141C80.915 12.9396 77.3801 11.9127 73.7785 11.9658ZM80.667 38.9619C79.8895 39.813 78.9519 40.5025 77.9078 40.9909C76.8637 41.4794 75.7336 41.7572 74.582 41.8086C73.4305 41.8599 72.2801 41.6839 71.1966 41.2904C70.1132 40.8969 69.1179 40.2938 68.2677 39.5153C68.0794 39.3424 67.8988 39.1617 67.7258 38.9734C65.9458 36.9797 64.962 34.4005 64.962 31.7278C64.962 29.0551 65.9458 26.4759 67.7258 24.4822C68.5361 23.5677 69.5312 22.8356 70.6454 22.3342C71.7597 21.8327 72.9676 21.5735 74.1895 21.5735C75.4113 21.5735 76.6193 21.8327 77.7336 22.3342C78.8478 22.8356 79.8429 23.5677 80.6532 24.4822C82.4308 26.4757 83.4132 29.0535 83.4132 31.7244C83.4132 34.3954 82.4308 36.973 80.6532 38.9665L80.667 38.9619Z" fill="white"/>
<path d="M121.718 13.3368C118.478 13.3181 115.334 14.4379 112.836 16.5009L110.099 12.5171H102.751V50.8034H112.979V34.7899C112.936 32.8774 113.105 30.966 113.484 29.0909C113.92 27.0496 116.643 23.0794 120.074 23.0794C121.681 23.0657 123.247 23.5913 124.521 24.572L126.402 26.0347L131.568 16.85L130.069 15.7776C127.62 14.0879 124.691 13.2321 121.718 13.3368Z" fill="white"/>
<path d="M201.272 21.584H204.33V36.6929H201.272V30.6493H195.157V36.6929H192.099V21.584H195.157V27.6275H201.272V21.584Z" fill="white"/>
<path d="M218 27.6275C218 28.6492 217.752 29.6061 217.257 30.4982C216.777 31.3904 216.107 32.1171 215.248 32.6782L218 36.6929H214.636L212.54 33.6279L211.884 33.6711H208.827V36.6929H205.769V21.584H211.884C212.729 21.584 213.522 21.7423 214.265 22.0588C215.008 22.3754 215.656 22.8071 216.209 23.3539C216.762 23.9007 217.199 24.541 217.519 25.2749C217.84 26.0087 218 26.793 218 27.6275ZM208.827 24.6058V30.6493H211.884C212.307 30.6493 212.7 30.5702 213.064 30.4119C213.442 30.2536 213.77 30.0378 214.047 29.7644C214.323 29.491 214.542 29.1744 214.702 28.8147C214.862 28.4406 214.942 28.0448 214.942 27.6275C214.942 27.2103 214.862 26.8217 214.702 26.462C214.542 26.0879 214.323 25.7641 214.047 25.4907C213.77 25.2173 213.442 25.0015 213.064 24.8432C212.7 24.6849 212.307 24.6058 211.884 24.6058H208.827Z" fill="white"/>
</svg>
